<svg xmlns="http://www.w3.org/2000/svg" xmlns:xlink="http://www.w3.org/1999/xlink" width="150" zoomAndPan="magnify" viewBox="0 0 112.5 37.5" height="50" preserveAspectRatio="xMidYMid meet" version="1.0"><defs><g/></defs><g fill="#10100e" fill-opacity="1"><g transform="translate(2.436448, 25.571771)"><g><path d="M 0.109375 0.734375 C 0.109375 0.503906 0.15625 0.382812 0.25 0.375 C 0.351562 0.375 0.488281 0.296875 0.65625 0.140625 C 0.863281 -0.046875 0.972656 -0.335938 0.984375 -0.734375 C 1.003906 -1.140625 1.015625 -1.78125 1.015625 -2.65625 C 1.015625 -3.289062 1.015625 -3.75 1.015625 -4.03125 C 1.023438 -4.3125 1.03125 -4.515625 1.03125 -4.640625 C 1.03125 -4.773438 1.03125 -4.925781 1.03125 -5.09375 C 1.03125 -5.457031 0.96875 -5.710938 0.84375 -5.859375 C 0.726562 -6.003906 0.613281 -6.117188 0.5 -6.203125 C 0.382812 -6.285156 0.328125 -6.414062 0.328125 -6.59375 C 0.328125 -6.800781 0.394531 -6.941406 0.53125 -7.015625 C 0.664062 -7.085938 0.859375 -7.148438 1.109375 -7.203125 C 1.367188 -7.265625 1.675781 -7.351562 2.03125 -7.46875 C 2.476562 -7.632812 2.78125 -7.78125 2.9375 -7.90625 C 3.101562 -8.039062 3.226562 -8.148438 3.3125 -8.234375 C 3.394531 -8.316406 3.523438 -8.359375 3.703125 -8.359375 C 3.953125 -8.359375 4.117188 -8.25 4.203125 -8.03125 C 4.285156 -7.8125 4.328125 -7.550781 4.328125 -7.25 L 4.328125 -0.984375 C 4.328125 1.015625 3.582031 2.015625 2.09375 2.015625 C 1.351562 2.015625 0.835938 1.863281 0.546875 1.5625 C 0.253906 1.269531 0.109375 0.992188 0.109375 0.734375 Z M 0.5625 -8.9375 C 0.414062 -9.351562 0.484375 -9.800781 0.765625 -10.28125 C 1.046875 -10.757812 1.476562 -11.148438 2.0625 -11.453125 C 2.539062 -11.703125 2.976562 -11.828125 3.375 -11.828125 C 3.976562 -11.828125 4.367188 -11.578125 4.546875 -11.078125 C 4.703125 -10.648438 4.640625 -10.203125 4.359375 -9.734375 C 4.078125 -9.273438 3.644531 -8.882812 3.0625 -8.5625 C 2.820312 -8.4375 2.585938 -8.335938 2.359375 -8.265625 C 2.128906 -8.203125 1.910156 -8.171875 1.703125 -8.171875 C 1.117188 -8.171875 0.738281 -8.425781 0.5625 -8.9375 Z M 0.5625 -8.9375 "/></g></g></g><g fill="#10100e" fill-opacity="1"><g transform="translate(7.709475, 25.571771)"><g><path d="M 0.203125 -6.59375 C 0.203125 -6.800781 0.269531 -6.941406 0.40625 -7.015625 C 0.550781 -7.085938 0.75 -7.148438 1 -7.203125 C 1.25 -7.265625 1.554688 -7.351562 1.921875 -7.46875 C 2.359375 -7.632812 2.65625 -7.78125 2.8125 -7.90625 C 2.976562 -8.039062 3.101562 -8.148438 3.1875 -8.234375 C 3.269531 -8.316406 3.398438 -8.359375 3.578125 -8.359375 C 3.828125 -8.359375 3.992188 -8.25 4.078125 -8.03125 C 4.160156 -7.8125 4.203125 -7.550781 4.203125 -7.25 C 4.210938 -6.820312 4.222656 -6.472656 4.234375 -6.203125 C 4.242188 -5.941406 4.25 -5.597656 4.25 -5.171875 L 4.25 -4.15625 C 4.25 -3.289062 4.320312 -2.703125 4.46875 -2.390625 C 4.625 -2.085938 4.859375 -1.9375 5.171875 -1.9375 C 5.484375 -1.9375 5.707031 -2.085938 5.84375 -2.390625 C 5.976562 -2.703125 6.046875 -3.300781 6.046875 -4.1875 L 6.046875 -5.171875 C 6.046875 -5.515625 5.988281 -5.753906 5.875 -5.890625 C 5.757812 -6.023438 5.644531 -6.132812 5.53125 -6.21875 C 5.414062 -6.300781 5.359375 -6.425781 5.359375 -6.59375 C 5.359375 -6.800781 5.425781 -6.941406 5.5625 -7.015625 C 5.695312 -7.085938 5.890625 -7.148438 6.140625 -7.203125 C 6.398438 -7.265625 6.707031 -7.351562 7.0625 -7.46875 C 7.5 -7.632812 7.800781 -7.78125 7.96875 -7.90625 C 8.132812 -8.039062 8.257812 -8.148438 8.34375 -8.234375 C 8.425781 -8.316406 8.554688 -8.359375 8.734375 -8.359375 C 8.984375 -8.359375 9.144531 -8.25 9.21875 -8.03125 C 9.300781 -7.8125 9.34375 -7.550781 9.34375 -7.25 L 9.375 -5.578125 C 9.375 -4.960938 9.375 -4.46875 9.375 -4.09375 C 9.382812 -3.726562 9.390625 -3.4375 9.390625 -3.21875 C 9.390625 -3 9.390625 -2.804688 9.390625 -2.640625 C 9.390625 -2.160156 9.421875 -1.796875 9.484375 -1.546875 C 9.554688 -1.296875 9.640625 -1.113281 9.734375 -1 C 9.835938 -0.882812 9.921875 -0.785156 9.984375 -0.703125 C 10.054688 -0.628906 10.09375 -0.519531 10.09375 -0.375 C 10.09375 -0.164062 10.03125 -0.03125 9.90625 0.03125 C 9.789062 0.101562 9.640625 0.140625 9.453125 0.140625 C 9.265625 0.140625 9.039062 0.117188 8.78125 0.078125 C 8.53125 0.0351562 8.285156 0.015625 8.046875 0.015625 C 7.828125 0.015625 7.640625 0.0234375 7.484375 0.046875 C 7.328125 0.0664062 7.160156 0.09375 6.984375 0.125 C 6.722656 0.15625 6.507812 0.109375 6.34375 -0.015625 C 6.175781 -0.140625 6.078125 -0.320312 6.046875 -0.5625 C 5.992188 -0.96875 5.9375 -1.171875 5.875 -1.171875 C 5.800781 -1.171875 5.628906 -1.023438 5.359375 -0.734375 C 5.140625 -0.503906 4.816406 -0.300781 4.390625 -0.125 C 3.972656 0.0390625 3.582031 0.125 3.21875 0.125 C 2.582031 0.125 2.09375 -0.0078125 1.75 -0.28125 C 1.414062 -0.5625 1.191406 -0.90625 1.078125 -1.3125 C 0.960938 -1.726562 0.90625 -2.148438 0.90625 -2.578125 L 0.90625 -5.09375 C 0.90625 -5.457031 0.847656 -5.710938 0.734375 -5.859375 C 0.617188 -6.003906 0.5 -6.117188 0.375 -6.203125 C 0.257812 -6.285156 0.203125 -6.414062 0.203125 -6.59375 Z M 0.203125 -6.59375 "/></g></g></g><g fill="#10100e" fill-opacity="1"><g transform="translate(18.193722, 25.571771)"><g><path d="M 2.546875 0 C 2.347656 0 2.109375 0.0195312 1.828125 0.0625 C 1.546875 0.101562 1.28125 0.125 1.03125 0.125 C 0.789062 0.125 0.59375 0.0859375 0.4375 0.015625 C 0.28125 -0.046875 0.203125 -0.179688 0.203125 -0.390625 C 0.203125 -0.546875 0.234375 -0.660156 0.296875 -0.734375 C 0.367188 -0.804688 0.453125 -0.898438 0.546875 -1.015625 C 0.648438 -1.128906 0.734375 -1.3125 0.796875 -1.5625 C 0.867188 -1.8125 0.90625 -2.175781 0.90625 -2.65625 C 0.90625 -3.125 0.90625 -3.664062 0.90625 -4.28125 C 0.90625 -4.894531 0.90625 -5.507812 0.90625 -6.125 C 0.914062 -6.738281 0.921875 -7.265625 0.921875 -7.703125 C 0.921875 -8.148438 0.921875 -8.4375 0.921875 -8.5625 C 0.921875 -8.9375 0.863281 -9.195312 0.75 -9.34375 C 0.632812 -9.488281 0.515625 -9.597656 0.390625 -9.671875 C 0.273438 -9.753906 0.21875 -9.882812 0.21875 -10.0625 C 0.21875 -10.269531 0.285156 -10.410156 0.421875 -10.484375 C 0.566406 -10.566406 0.765625 -10.632812 1.015625 -10.6875 C 1.273438 -10.738281 1.582031 -10.828125 1.9375 -10.953125 C 2.375 -11.117188 2.675781 -11.265625 2.84375 -11.390625 C 3.007812 -11.523438 3.132812 -11.632812 3.21875 -11.71875 C 3.300781 -11.800781 3.429688 -11.84375 3.609375 -11.84375 C 3.847656 -11.84375 4.007812 -11.734375 4.09375 -11.515625 C 4.175781 -11.296875 4.21875 -11.035156 4.21875 -10.734375 L 4.21875 -2.65625 C 4.21875 -2.175781 4.25 -1.8125 4.3125 -1.5625 C 4.382812 -1.3125 4.46875 -1.128906 4.5625 -1.015625 C 4.664062 -0.898438 4.75 -0.804688 4.8125 -0.734375 C 4.882812 -0.660156 4.921875 -0.546875 4.921875 -0.390625 C 4.921875 -0.179688 4.84375 -0.046875 4.6875 0.015625 C 4.53125 0.0859375 4.332031 0.125 4.09375 0.125 C 3.832031 0.125 3.5625 0.101562 3.28125 0.0625 C 3 0.0195312 2.753906 0 2.546875 0 Z M 2.546875 0 "/></g></g></g><g fill="#10100e" fill-opacity="1"><g transform="translate(23.507943, 25.571771)"><g><path d="M 2.609375 0 C 2.410156 0 2.171875 0.0195312 1.890625 0.0625 C 1.609375 0.101562 1.34375 0.125 1.09375 0.125 C 0.851562 0.125 0.65625 0.0859375 0.5 0.015625 C 0.34375 -0.046875 0.265625 -0.179688 0.265625 -0.390625 C 0.265625 -0.546875 0.296875 -0.660156 0.359375 -0.734375 C 0.429688 -0.804688 0.515625 -0.898438 0.609375 -1.015625 C 0.710938 -1.128906 0.796875 -1.3125 0.859375 -1.5625 C 0.929688 -1.8125 0.96875 -2.175781 0.96875 -2.65625 C 0.96875 -3.289062 0.96875 -3.75 0.96875 -4.03125 C 0.976562 -4.3125 0.984375 -4.515625 0.984375 -4.640625 C 0.984375 -4.773438 0.984375 -4.925781 0.984375 -5.09375 C 0.984375 -5.457031 0.925781 -5.710938 0.8125 -5.859375 C 0.695312 -6.003906 0.578125 -6.117188 0.453125 -6.203125 C 0.335938 -6.285156 0.28125 -6.414062 0.28125 -6.59375 C 0.28125 -6.800781 0.347656 -6.941406 0.484375 -7.015625 C 0.628906 -7.085938 0.828125 -7.148438 1.078125 -7.203125 C 1.335938 -7.265625 1.644531 -7.351562 2 -7.46875 C 2.4375 -7.632812 2.738281 -7.78125 2.90625 -7.90625 C 3.070312 -8.039062 3.191406 -8.148438 3.265625 -8.234375 C 3.347656 -8.316406 3.484375 -8.359375 3.671875 -8.359375 C 3.910156 -8.359375 4.070312 -8.25 4.15625 -8.03125 C 4.238281 -7.8125 4.28125 -7.550781 4.28125 -7.25 L 4.28125 -2.65625 C 4.28125 -2.175781 4.3125 -1.8125 4.375 -1.5625 C 4.445312 -1.3125 4.53125 -1.128906 4.625 -1.015625 C 4.726562 -0.898438 4.8125 -0.804688 4.875 -0.734375 C 4.945312 -0.660156 4.984375 -0.546875 4.984375 -0.390625 C 4.984375 -0.179688 4.90625 -0.046875 4.75 0.015625 C 4.59375 0.0859375 4.394531 0.125 4.15625 0.125 C 3.894531 0.125 3.625 0.101562 3.34375 0.0625 C 3.0625 0.0195312 2.816406 0 2.609375 0 Z M 0.265625 -8.9375 C 0.128906 -9.351562 0.203125 -9.800781 0.484375 -10.28125 C 0.765625 -10.757812 1.191406 -11.148438 1.765625 -11.453125 C 2.242188 -11.703125 2.6875 -11.828125 3.09375 -11.828125 C 3.695312 -11.828125 4.085938 -11.578125 4.265625 -11.078125 C 4.410156 -10.648438 4.34375 -10.203125 4.0625 -9.734375 C 3.78125 -9.273438 3.351562 -8.882812 2.78125 -8.5625 C 2.28125 -8.320312 1.832031 -8.203125 1.4375 -8.203125 C 0.851562 -8.203125 0.460938 -8.445312 0.265625 -8.9375 Z M 0.265625 -8.9375 "/></g></g></g><g fill="#10100e" fill-opacity="1"><g transform="translate(28.863361, 25.571771)"><g><path d="M 2.671875 0.125 C 1.910156 0.125 1.34375 -0.0976562 0.96875 -0.546875 C 0.59375 -1.003906 0.40625 -1.550781 0.40625 -2.1875 C 0.40625 -3.101562 0.75 -3.820312 1.4375 -4.34375 C 2.125 -4.875 3.019531 -5.257812 4.125 -5.5 C 5.164062 -5.71875 5.6875 -6.0625 5.6875 -6.53125 C 5.6875 -6.707031 5.609375 -6.878906 5.453125 -7.046875 C 5.304688 -7.222656 5.046875 -7.3125 4.671875 -7.3125 C 4.304688 -7.3125 4.003906 -7.210938 3.765625 -7.015625 C 3.535156 -6.816406 3.332031 -6.585938 3.15625 -6.328125 C 2.976562 -6.078125 2.78125 -5.851562 2.5625 -5.65625 C 2.351562 -5.457031 2.066406 -5.359375 1.703125 -5.359375 C 1.472656 -5.359375 1.269531 -5.4375 1.09375 -5.59375 C 0.925781 -5.757812 0.84375 -5.960938 0.84375 -6.203125 C 0.84375 -6.671875 1.023438 -7.0625 1.390625 -7.375 C 1.765625 -7.695312 2.25 -7.941406 2.84375 -8.109375 C 3.445312 -8.273438 4.097656 -8.359375 4.796875 -8.359375 C 5.554688 -8.359375 6.242188 -8.238281 6.859375 -8 C 7.472656 -7.757812 7.960938 -7.359375 8.328125 -6.796875 C 8.703125 -6.234375 8.890625 -5.460938 8.890625 -4.484375 L 8.890625 -2.65625 C 8.890625 -2.175781 8.925781 -1.8125 9 -1.5625 C 9.070312 -1.3125 9.15625 -1.128906 9.25 -1.015625 C 9.34375 -0.898438 9.421875 -0.804688 9.484375 -0.734375 C 9.554688 -0.660156 9.59375 -0.546875 9.59375 -0.390625 C 9.59375 -0.179688 9.53125 -0.046875 9.40625 0.015625 C 9.28125 0.0859375 9.125 0.125 8.9375 0.125 C 8.726562 0.125 8.5 0.101562 8.25 0.0625 C 8.007812 0.0195312 7.785156 0 7.578125 0 C 7.359375 0 7.164062 0.0078125 7 0.03125 C 6.832031 0.0507812 6.660156 0.078125 6.484375 0.109375 C 6.265625 0.128906 6.066406 0.0976562 5.890625 0.015625 C 5.722656 -0.0664062 5.625 -0.21875 5.59375 -0.4375 C 5.582031 -0.65625 5.550781 -0.800781 5.5 -0.875 C 5.445312 -0.945312 5.378906 -0.984375 5.296875 -0.984375 C 5.140625 -0.984375 4.941406 -0.890625 4.703125 -0.703125 C 4.460938 -0.523438 4.175781 -0.34375 3.84375 -0.15625 C 3.507812 0.03125 3.117188 0.125 2.671875 0.125 Z M 3.609375 -3.03125 C 3.609375 -2.632812 3.707031 -2.347656 3.90625 -2.171875 C 4.101562 -2.003906 4.335938 -1.921875 4.609375 -1.921875 C 4.953125 -1.921875 5.210938 -2.066406 5.390625 -2.359375 C 5.566406 -2.648438 5.65625 -2.992188 5.65625 -3.390625 L 5.65625 -4.390625 C 5.65625 -4.753906 5.484375 -4.847656 5.140625 -4.671875 C 4.921875 -4.566406 4.691406 -4.445312 4.453125 -4.3125 C 4.210938 -4.1875 4.007812 -4.023438 3.84375 -3.828125 C 3.6875 -3.640625 3.609375 -3.375 3.609375 -3.03125 Z M 3.609375 -3.03125 "/></g></g></g><g fill="#10100e" fill-opacity="1"><g transform="translate(38.853262, 25.571771)"><g/></g></g><g fill="#10100e" fill-opacity="1"><g transform="translate(42.128314, 25.571771)"><g><path d="M 2.546875 0 C 2.347656 0 2.109375 0.0195312 1.828125 0.0625 C 1.546875 0.101562 1.28125 0.125 1.03125 0.125 C 0.789062 0.125 0.59375 0.0859375 0.4375 0.015625 C 0.28125 -0.046875 0.203125 -0.179688 0.203125 -0.390625 C 0.203125 -0.546875 0.234375 -0.660156 0.296875 -0.734375 C 0.367188 -0.804688 0.453125 -0.898438 0.546875 -1.015625 C 0.648438 -1.128906 0.734375 -1.3125 0.796875 -1.5625 C 0.867188 -1.8125 0.90625 -2.175781 0.90625 -2.65625 C 0.90625 -3.125 0.90625 -3.664062 0.90625 -4.28125 C 0.90625 -4.894531 0.90625 -5.507812 0.90625 -6.125 C 0.914062 -6.738281 0.921875 -7.265625 0.921875 -7.703125 C 0.921875 -8.148438 0.921875 -8.4375 0.921875 -8.5625 C 0.921875 -8.9375 0.863281 -9.1875 0.75 -9.3125 C 0.632812 -9.445312 0.515625 -9.554688 0.390625 -9.640625 C 0.273438 -9.722656 0.21875 -9.863281 0.21875 -10.0625 C 0.21875 -10.269531 0.285156 -10.410156 0.421875 -10.484375 C 0.566406 -10.566406 0.765625 -10.632812 1.015625 -10.6875 C 1.273438 -10.738281 1.582031 -10.828125 1.9375 -10.953125 C 2.375 -11.117188 2.675781 -11.265625 2.84375 -11.390625 C 3.007812 -11.523438 3.132812 -11.632812 3.21875 -11.71875 C 3.300781 -11.800781 3.429688 -11.84375 3.609375 -11.84375 C 3.847656 -11.84375 4.007812 -11.734375 4.09375 -11.515625 C 4.175781 -11.296875 4.21875 -11.035156 4.21875 -10.734375 L 4.21875 -7.234375 C 4.21875 -7.015625 4.234375 -6.90625 4.265625 -6.90625 C 4.304688 -6.914062 4.378906 -6.992188 4.484375 -7.140625 C 4.585938 -7.285156 4.722656 -7.453125 4.890625 -7.640625 C 5.054688 -7.828125 5.273438 -7.992188 5.546875 -8.140625 C 5.828125 -8.285156 6.164062 -8.359375 6.5625 -8.359375 C 7.269531 -8.359375 7.851562 -8.148438 8.3125 -7.734375 C 8.78125 -7.328125 9.128906 -6.800781 9.359375 -6.15625 C 9.597656 -5.519531 9.710938 -4.835938 9.703125 -4.109375 C 9.703125 -3.390625 9.578125 -2.707031 9.328125 -2.0625 C 9.078125 -1.425781 8.695312 -0.898438 8.1875 -0.484375 C 7.6875 -0.078125 7.054688 0.125 6.296875 0.125 C 5.691406 0.125 5.226562 0.113281 4.90625 0.09375 C 4.582031 0.0820312 4.320312 0.0703125 4.125 0.0625 C 3.9375 0.0507812 3.726562 0.0351562 3.5 0.015625 C 3.28125 0.00390625 2.960938 0 2.546875 0 Z M 5.234375 -6.03125 C 4.847656 -6.03125 4.566406 -5.796875 4.390625 -5.328125 C 4.210938 -4.867188 4.125 -4.328125 4.125 -3.703125 C 4.125 -3.085938 4.210938 -2.5625 4.390625 -2.125 C 4.578125 -1.6875 4.859375 -1.46875 5.234375 -1.46875 C 5.597656 -1.46875 5.875 -1.6875 6.0625 -2.125 C 6.25 -2.570312 6.34375 -3.109375 6.34375 -3.734375 C 6.34375 -4.347656 6.25 -4.882812 6.0625 -5.34375 C 5.875 -5.800781 5.597656 -6.03125 5.234375 -6.03125 Z M 5.234375 -6.03125 "/></g></g></g><g fill="#10100e" fill-opacity="1"><g transform="translate(52.447779, 25.571771)"><g><path d="M 4.96875 0.125 C 4.238281 0.125 3.519531 -0.015625 2.8125 -0.296875 C 2.113281 -0.585938 1.535156 -1.039062 1.078125 -1.65625 C 0.628906 -2.28125 0.40625 -3.09375 0.40625 -4.09375 C 0.40625 -4.945312 0.59375 -5.691406 0.96875 -6.328125 C 1.34375 -6.972656 1.859375 -7.472656 2.515625 -7.828125 C 3.171875 -8.179688 3.929688 -8.359375 4.796875 -8.359375 C 5.648438 -8.359375 6.34375 -8.253906 6.875 -8.046875 C 7.414062 -7.847656 7.832031 -7.585938 8.125 -7.265625 C 8.414062 -6.941406 8.613281 -6.609375 8.71875 -6.265625 C 8.832031 -5.929688 8.890625 -5.640625 8.890625 -5.390625 C 8.890625 -4.703125 8.675781 -4.140625 8.25 -3.703125 C 7.832031 -3.273438 7.289062 -2.960938 6.625 -2.765625 C 5.96875 -2.566406 5.296875 -2.46875 4.609375 -2.46875 C 4.421875 -2.46875 4.28125 -2.398438 4.1875 -2.265625 C 4.101562 -2.128906 4.078125 -1.972656 4.109375 -1.796875 C 4.140625 -1.617188 4.25 -1.457031 4.4375 -1.3125 C 4.625 -1.175781 4.890625 -1.109375 5.234375 -1.109375 C 5.722656 -1.109375 6.113281 -1.195312 6.40625 -1.375 C 6.695312 -1.550781 6.925781 -1.753906 7.09375 -1.984375 C 7.269531 -2.222656 7.4375 -2.429688 7.59375 -2.609375 C 7.75 -2.796875 7.957031 -2.890625 8.21875 -2.890625 C 8.445312 -2.890625 8.617188 -2.816406 8.734375 -2.671875 C 8.859375 -2.523438 8.921875 -2.363281 8.921875 -2.1875 C 8.921875 -1.71875 8.738281 -1.3125 8.375 -0.96875 C 8.007812 -0.625 7.523438 -0.351562 6.921875 -0.15625 C 6.316406 0.03125 5.664062 0.125 4.96875 0.125 Z M 4.796875 -7.3125 C 4.503906 -7.3125 4.269531 -7.140625 4.09375 -6.796875 C 3.925781 -6.453125 3.84375 -5.992188 3.84375 -5.421875 C 3.84375 -4.835938 3.925781 -4.375 4.09375 -4.03125 C 4.269531 -3.6875 4.503906 -3.515625 4.796875 -3.515625 C 5.085938 -3.515625 5.316406 -3.6875 5.484375 -4.03125 C 5.660156 -4.375 5.75 -4.835938 5.75 -5.421875 C 5.75 -5.992188 5.660156 -6.453125 5.484375 -6.796875 C 5.316406 -7.140625 5.085938 -7.3125 4.796875 -7.3125 Z M 4.796875 -7.3125 "/></g></g></g><g fill="#10100e" fill-opacity="1"><g transform="translate(61.963931, 25.571771)"><g><path d="M 2.546875 0 C 2.347656 0 2.109375 0.0195312 1.828125 0.0625 C 1.546875 0.101562 1.28125 0.125 1.03125 0.125 C 0.789062 0.125 0.59375 0.0859375 0.4375 0.015625 C 0.28125 -0.046875 0.203125 -0.179688 0.203125 -0.390625 C 0.203125 -0.546875 0.234375 -0.660156 0.296875 -0.734375 C 0.367188 -0.804688 0.453125 -0.898438 0.546875 -1.015625 C 0.648438 -1.128906 0.734375 -1.3125 0.796875 -1.5625 C 0.867188 -1.8125 0.90625 -2.175781 0.90625 -2.65625 C 0.90625 -3.125 0.90625 -3.664062 0.90625 -4.28125 C 0.90625 -4.894531 0.90625 -5.507812 0.90625 -6.125 C 0.914062 -6.738281 0.921875 -7.265625 0.921875 -7.703125 C 0.921875 -8.148438 0.921875 -8.4375 0.921875 -8.5625 C 0.921875 -8.9375 0.863281 -9.195312 0.75 -9.34375 C 0.632812 -9.488281 0.515625 -9.597656 0.390625 -9.671875 C 0.273438 -9.753906 0.21875 -9.882812 0.21875 -10.0625 C 0.21875 -10.269531 0.285156 -10.410156 0.421875 -10.484375 C 0.566406 -10.566406 0.765625 -10.632812 1.015625 -10.6875 C 1.273438 -10.738281 1.582031 -10.828125 1.9375 -10.953125 C 2.375 -11.117188 2.675781 -11.265625 2.84375 -11.390625 C 3.007812 -11.523438 3.132812 -11.632812 3.21875 -11.71875 C 3.300781 -11.800781 3.429688 -11.84375 3.609375 -11.84375 C 3.847656 -11.84375 4.007812 -11.734375 4.09375 -11.515625 C 4.175781 -11.296875 4.21875 -11.035156 4.21875 -10.734375 L 4.21875 -2.65625 C 4.21875 -2.175781 4.25 -1.8125 4.3125 -1.5625 C 4.382812 -1.3125 4.46875 -1.128906 4.5625 -1.015625 C 4.664062 -0.898438 4.75 -0.804688 4.8125 -0.734375 C 4.882812 -0.660156 4.921875 -0.546875 4.921875 -0.390625 C 4.921875 -0.179688 4.84375 -0.046875 4.6875 0.015625 C 4.53125 0.0859375 4.332031 0.125 4.09375 0.125 C 3.832031 0.125 3.5625 0.101562 3.28125 0.0625 C 3 0.0195312 2.753906 0 2.546875 0 Z M 2.546875 0 "/></g></g></g><g fill="#10100e" fill-opacity="1"><g transform="translate(67.278151, 25.571771)"><g><path d="M 2.609375 0 C 2.410156 0 2.171875 0.0195312 1.890625 0.0625 C 1.609375 0.101562 1.34375 0.125 1.09375 0.125 C 0.851562 0.125 0.65625 0.0859375 0.5 0.015625 C 0.34375 -0.046875 0.265625 -0.179688 0.265625 -0.390625 C 0.265625 -0.546875 0.296875 -0.660156 0.359375 -0.734375 C 0.429688 -0.804688 0.515625 -0.898438 0.609375 -1.015625 C 0.710938 -1.128906 0.796875 -1.3125 0.859375 -1.5625 C 0.929688 -1.8125 0.96875 -2.175781 0.96875 -2.65625 C 0.96875 -3.289062 0.96875 -3.75 0.96875 -4.03125 C 0.976562 -4.3125 0.984375 -4.515625 0.984375 -4.640625 C 0.984375 -4.773438 0.984375 -4.925781 0.984375 -5.09375 C 0.984375 -5.457031 0.925781 -5.710938 0.8125 -5.859375 C 0.695312 -6.003906 0.578125 -6.117188 0.453125 -6.203125 C 0.335938 -6.285156 0.28125 -6.414062 0.28125 -6.59375 C 0.28125 -6.800781 0.347656 -6.941406 0.484375 -7.015625 C 0.628906 -7.085938 0.828125 -7.148438 1.078125 -7.203125 C 1.335938 -7.265625 1.644531 -7.351562 2 -7.46875 C 2.4375 -7.632812 2.738281 -7.78125 2.90625 -7.90625 C 3.070312 -8.039062 3.191406 -8.148438 3.265625 -8.234375 C 3.347656 -8.316406 3.484375 -8.359375 3.671875 -8.359375 C 3.910156 -8.359375 4.070312 -8.25 4.15625 -8.03125 C 4.238281 -7.8125 4.28125 -7.550781 4.28125 -7.25 L 4.28125 -2.65625 C 4.28125 -2.175781 4.3125 -1.8125 4.375 -1.5625 C 4.445312 -1.3125 4.53125 -1.128906 4.625 -1.015625 C 4.726562 -0.898438 4.8125 -0.804688 4.875 -0.734375 C 4.945312 -0.660156 4.984375 -0.546875 4.984375 -0.390625 C 4.984375 -0.179688 4.90625 -0.046875 4.75 0.015625 C 4.59375 0.0859375 4.394531 0.125 4.15625 0.125 C 3.894531 0.125 3.625 0.101562 3.34375 0.0625 C 3.0625 0.0195312 2.816406 0 2.609375 0 Z M 0.265625 -8.9375 C 0.128906 -9.351562 0.203125 -9.800781 0.484375 -10.28125 C 0.765625 -10.757812 1.191406 -11.148438 1.765625 -11.453125 C 2.242188 -11.703125 2.6875 -11.828125 3.09375 -11.828125 C 3.695312 -11.828125 4.085938 -11.578125 4.265625 -11.078125 C 4.410156 -10.648438 4.34375 -10.203125 4.0625 -9.734375 C 3.78125 -9.273438 3.351562 -8.882812 2.78125 -8.5625 C 2.28125 -8.320312 1.832031 -8.203125 1.4375 -8.203125 C 0.851562 -8.203125 0.460938 -8.445312 0.265625 -8.9375 Z M 0.265625 -8.9375 "/></g></g></g><g fill="#10100e" fill-opacity="1"><g transform="translate(72.633566, 25.571771)"><g><path d="M 0.203125 -0.390625 C 0.203125 -0.546875 0.234375 -0.660156 0.296875 -0.734375 C 0.367188 -0.804688 0.453125 -0.898438 0.546875 -1.015625 C 0.648438 -1.128906 0.734375 -1.3125 0.796875 -1.5625 C 0.867188 -1.8125 0.90625 -2.175781 0.90625 -2.65625 C 0.90625 -3.289062 0.90625 -3.75 0.90625 -4.03125 C 0.914062 -4.3125 0.921875 -4.515625 0.921875 -4.640625 C 0.921875 -4.773438 0.921875 -4.925781 0.921875 -5.09375 C 0.921875 -5.457031 0.863281 -5.710938 0.75 -5.859375 C 0.632812 -6.003906 0.515625 -6.117188 0.390625 -6.203125 C 0.273438 -6.285156 0.21875 -6.414062 0.21875 -6.59375 C 0.21875 -6.800781 0.285156 -6.941406 0.421875 -7.015625 C 0.566406 -7.085938 0.765625 -7.148438 1.015625 -7.203125 C 1.273438 -7.265625 1.582031 -7.351562 1.9375 -7.46875 C 2.375 -7.632812 2.675781 -7.78125 2.84375 -7.90625 C 3.007812 -8.039062 3.132812 -8.148438 3.21875 -8.234375 C 3.300781 -8.316406 3.429688 -8.359375 3.609375 -8.359375 C 3.847656 -8.359375 4.007812 -8.25 4.09375 -8.03125 C 4.175781 -7.8125 4.21875 -7.550781 4.21875 -7.25 L 4.21875 -7.078125 C 4.21875 -6.890625 4.253906 -6.796875 4.328125 -6.796875 C 4.390625 -6.796875 4.492188 -6.875 4.640625 -7.03125 C 4.796875 -7.1875 4.992188 -7.367188 5.234375 -7.578125 C 5.472656 -7.785156 5.757812 -7.96875 6.09375 -8.125 C 6.4375 -8.28125 6.820312 -8.359375 7.25 -8.359375 C 7.894531 -8.359375 8.378906 -8.21875 8.703125 -7.9375 C 9.035156 -7.664062 9.257812 -7.320312 9.375 -6.90625 C 9.5 -6.5 9.5625 -6.082031 9.5625 -5.65625 L 9.5625 -2.65625 C 9.5625 -2.175781 9.59375 -1.8125 9.65625 -1.5625 C 9.726562 -1.3125 9.8125 -1.128906 9.90625 -1.015625 C 10 -0.898438 10.078125 -0.804688 10.140625 -0.734375 C 10.210938 -0.660156 10.25 -0.546875 10.25 -0.390625 C 10.25 -0.179688 10.191406 -0.046875 10.078125 0.015625 C 9.960938 0.0859375 9.8125 0.125 9.625 0.125 C 9.425781 0.125 9.195312 0.101562 8.9375 0.0625 C 8.6875 0.0195312 8.445312 0 8.21875 0 C 8 0 7.804688 0.0078125 7.640625 0.03125 C 7.484375 0.0507812 7.316406 0.078125 7.140625 0.109375 C 6.867188 0.128906 6.644531 0.0664062 6.46875 -0.078125 C 6.300781 -0.234375 6.21875 -0.445312 6.21875 -0.71875 L 6.21875 -4.09375 C 6.21875 -4.757812 6.148438 -5.257812 6.015625 -5.59375 C 5.878906 -5.9375 5.628906 -6.109375 5.265625 -6.109375 C 4.953125 -6.109375 4.695312 -5.945312 4.5 -5.625 C 4.3125 -5.300781 4.21875 -4.640625 4.21875 -3.640625 L 4.21875 -2.65625 C 4.21875 -2.175781 4.25 -1.8125 4.3125 -1.5625 C 4.382812 -1.3125 4.46875 -1.128906 4.5625 -1.015625 C 4.664062 -0.898438 4.75 -0.804688 4.8125 -0.734375 C 4.882812 -0.660156 4.921875 -0.546875 4.921875 -0.390625 C 4.921875 -0.179688 4.84375 -0.046875 4.6875 0.015625 C 4.53125 0.0859375 4.332031 0.125 4.09375 0.125 C 3.832031 0.125 3.5625 0.101562 3.28125 0.0625 C 3 0.0195312 2.753906 0 2.546875 0 C 2.347656 0 2.109375 0.0195312 1.828125 0.0625 C 1.546875 0.101562 1.28125 0.125 1.03125 0.125 C 0.789062 0.125 0.59375 0.0859375 0.4375 0.015625 C 0.28125 -0.046875 0.203125 -0.179688 0.203125 -0.390625 Z M 0.203125 -0.390625 "/></g></g></g><g fill="#10100e" fill-opacity="1"><g transform="translate(83.282594, 25.571771)"><g><path d="M 2.671875 0.125 C 1.910156 0.125 1.34375 -0.0976562 0.96875 -0.546875 C 0.59375 -1.003906 0.40625 -1.550781 0.40625 -2.1875 C 0.40625 -3.101562 0.75 -3.820312 1.4375 -4.34375 C 2.125 -4.875 3.019531 -5.257812 4.125 -5.5 C 5.164062 -5.71875 5.6875 -6.0625 5.6875 -6.53125 C 5.6875 -6.707031 5.609375 -6.878906 5.453125 -7.046875 C 5.304688 -7.222656 5.046875 -7.3125 4.671875 -7.3125 C 4.304688 -7.3125 4.003906 -7.210938 3.765625 -7.015625 C 3.535156 -6.816406 3.332031 -6.585938 3.15625 -6.328125 C 2.976562 -6.078125 2.78125 -5.851562 2.5625 -5.65625 C 2.351562 -5.457031 2.066406 -5.359375 1.703125 -5.359375 C 1.472656 -5.359375 1.269531 -5.4375 1.09375 -5.59375 C 0.925781 -5.757812 0.84375 -5.960938 0.84375 -6.203125 C 0.84375 -6.671875 1.023438 -7.0625 1.390625 -7.375 C 1.765625 -7.695312 2.25 -7.941406 2.84375 -8.109375 C 3.445312 -8.273438 4.097656 -8.359375 4.796875 -8.359375 C 5.554688 -8.359375 6.242188 -8.238281 6.859375 -8 C 7.472656 -7.757812 7.960938 -7.359375 8.328125 -6.796875 C 8.703125 -6.234375 8.890625 -5.460938 8.890625 -4.484375 L 8.890625 -2.65625 C 8.890625 -2.175781 8.925781 -1.8125 9 -1.5625 C 9.070312 -1.3125 9.15625 -1.128906 9.25 -1.015625 C 9.34375 -0.898438 9.421875 -0.804688 9.484375 -0.734375 C 9.554688 -0.660156 9.59375 -0.546875 9.59375 -0.390625 C 9.59375 -0.179688 9.53125 -0.046875 9.40625 0.015625 C 9.28125 0.0859375 9.125 0.125 8.9375 0.125 C 8.726562 0.125 8.5 0.101562 8.25 0.0625 C 8.007812 0.0195312 7.785156 0 7.578125 0 C 7.359375 0 7.164062 0.0078125 7 0.03125 C 6.832031 0.0507812 6.660156 0.078125 6.484375 0.109375 C 6.265625 0.128906 6.066406 0.0976562 5.890625 0.015625 C 5.722656 -0.0664062 5.625 -0.21875 5.59375 -0.4375 C 5.582031 -0.65625 5.550781 -0.800781 5.5 -0.875 C 5.445312 -0.945312 5.378906 -0.984375 5.296875 -0.984375 C 5.140625 -0.984375 4.941406 -0.890625 4.703125 -0.703125 C 4.460938 -0.523438 4.175781 -0.34375 3.84375 -0.15625 C 3.507812 0.03125 3.117188 0.125 2.671875 0.125 Z M 3.609375 -3.03125 C 3.609375 -2.632812 3.707031 -2.347656 3.90625 -2.171875 C 4.101562 -2.003906 4.335938 -1.921875 4.609375 -1.921875 C 4.953125 -1.921875 5.210938 -2.066406 5.390625 -2.359375 C 5.566406 -2.648438 5.65625 -2.992188 5.65625 -3.390625 L 5.65625 -4.390625 C 5.65625 -4.753906 5.484375 -4.847656 5.140625 -4.671875 C 4.921875 -4.566406 4.691406 -4.445312 4.453125 -4.3125 C 4.210938 -4.1875 4.007812 -4.023438 3.84375 -3.828125 C 3.6875 -3.640625 3.609375 -3.375 3.609375 -3.03125 Z M 3.609375 -3.03125 "/></g></g></g><g fill="#10100e" fill-opacity="1"><g transform="translate(93.272495, 25.571771)"><g><path d="M 0.203125 -7.75 C 0.203125 -7.945312 0.269531 -8.082031 0.40625 -8.15625 C 0.550781 -8.226562 0.742188 -8.296875 0.984375 -8.359375 C 1.234375 -8.429688 1.523438 -8.566406 1.859375 -8.765625 C 2.296875 -9.046875 2.609375 -9.3125 2.796875 -9.5625 C 2.992188 -9.820312 3.144531 -10.03125 3.25 -10.1875 C 3.363281 -10.34375 3.507812 -10.421875 3.6875 -10.421875 C 3.9375 -10.421875 4.082031 -10.296875 4.125 -10.046875 C 4.175781 -9.796875 4.203125 -9.519531 4.203125 -9.21875 L 4.203125 -8.46875 C 4.203125 -8.3125 4.273438 -8.234375 4.421875 -8.234375 L 4.75 -8.234375 C 5.09375 -8.234375 5.265625 -8.0625 5.265625 -7.71875 C 5.265625 -7.363281 5.09375 -7.1875 4.75 -7.1875 L 4.421875 -7.1875 C 4.273438 -7.1875 4.203125 -7.109375 4.203125 -6.953125 L 4.203125 -4.546875 C 4.203125 -3.671875 4.210938 -3.03125 4.234375 -2.625 C 4.253906 -2.226562 4.359375 -1.9375 4.546875 -1.75 C 4.671875 -1.632812 4.773438 -1.5625 4.859375 -1.53125 C 4.941406 -1.507812 5.003906 -1.476562 5.046875 -1.4375 C 5.085938 -1.394531 5.109375 -1.300781 5.109375 -1.15625 C 5.109375 -0.894531 4.957031 -0.613281 4.65625 -0.3125 C 4.363281 -0.0195312 3.847656 0.125 3.109375 0.125 C 2.242188 0.125 1.65625 -0.1875 1.34375 -0.8125 C 1.039062 -1.4375 0.890625 -2.25 0.890625 -3.25 L 0.90625 -6.234375 C 0.90625 -6.609375 0.847656 -6.867188 0.734375 -7.015625 C 0.617188 -7.160156 0.5 -7.269531 0.375 -7.34375 C 0.257812 -7.425781 0.203125 -7.5625 0.203125 -7.75 Z M 0.203125 -7.75 "/></g></g></g><g fill="#10100e" fill-opacity="1"><g transform="translate(98.833889, 25.571771)"><g><path d="M 0.203125 -7.75 C 0.203125 -7.945312 0.269531 -8.082031 0.40625 -8.15625 C 0.550781 -8.226562 0.742188 -8.296875 0.984375 -8.359375 C 1.234375 -8.429688 1.523438 -8.566406 1.859375 -8.765625 C 2.296875 -9.046875 2.609375 -9.3125 2.796875 -9.5625 C 2.992188 -9.820312 3.144531 -10.03125 3.25 -10.1875 C 3.363281 -10.34375 3.507812 -10.421875 3.6875 -10.421875 C 3.9375 -10.421875 4.082031 -10.296875 4.125 -10.046875 C 4.175781 -9.796875 4.203125 -9.519531 4.203125 -9.21875 L 4.203125 -8.46875 C 4.203125 -8.3125 4.273438 -8.234375 4.421875 -8.234375 L 4.75 -8.234375 C 5.09375 -8.234375 5.265625 -8.0625 5.265625 -7.71875 C 5.265625 -7.363281 5.09375 -7.1875 4.75 -7.1875 L 4.421875 -7.1875 C 4.273438 -7.1875 4.203125 -7.109375 4.203125 -6.953125 L 4.203125 -4.546875 C 4.203125 -3.671875 4.210938 -3.03125 4.234375 -2.625 C 4.253906 -2.226562 4.359375 -1.9375 4.546875 -1.75 C 4.671875 -1.632812 4.773438 -1.5625 4.859375 -1.53125 C 4.941406 -1.507812 5.003906 -1.476562 5.046875 -1.4375 C 5.085938 -1.394531 5.109375 -1.300781 5.109375 -1.15625 C 5.109375 -0.894531 4.957031 -0.613281 4.65625 -0.3125 C 4.363281 -0.0195312 3.847656 0.125 3.109375 0.125 C 2.242188 0.125 1.65625 -0.1875 1.34375 -0.8125 C 1.039062 -1.4375 0.890625 -2.25 0.890625 -3.25 L 0.90625 -6.234375 C 0.90625 -6.609375 0.847656 -6.867188 0.734375 -7.015625 C 0.617188 -7.160156 0.5 -7.269531 0.375 -7.34375 C 0.257812 -7.425781 0.203125 -7.5625 0.203125 -7.75 Z M 0.203125 -7.75 "/></g></g></g><g fill="#10100e" fill-opacity="1"><g transform="translate(104.395283, 25.571771)"><g><path d="M 2.609375 0 C 2.410156 0 2.171875 0.0195312 1.890625 0.0625 C 1.609375 0.101562 1.34375 0.125 1.09375 0.125 C 0.851562 0.125 0.65625 0.0859375 0.5 0.015625 C 0.34375 -0.046875 0.265625 -0.179688 0.265625 -0.390625 C 0.265625 -0.546875 0.296875 -0.660156 0.359375 -0.734375 C 0.429688 -0.804688 0.515625 -0.898438 0.609375 -1.015625 C 0.710938 -1.128906 0.796875 -1.3125 0.859375 -1.5625 C 0.929688 -1.8125 0.96875 -2.175781 0.96875 -2.65625 C 0.96875 -3.289062 0.96875 -3.75 0.96875 -4.03125 C 0.976562 -4.3125 0.984375 -4.515625 0.984375 -4.640625 C 0.984375 -4.773438 0.984375 -4.925781 0.984375 -5.09375 C 0.984375 -5.457031 0.925781 -5.710938 0.8125 -5.859375 C 0.695312 -6.003906 0.578125 -6.117188 0.453125 -6.203125 C 0.335938 -6.285156 0.28125 -6.414062 0.28125 -6.59375 C 0.28125 -6.800781 0.347656 -6.941406 0.484375 -7.015625 C 0.628906 -7.085938 0.828125 -7.148438 1.078125 -7.203125 C 1.335938 -7.265625 1.644531 -7.351562 2 -7.46875 C 2.4375 -7.632812 2.738281 -7.78125 2.90625 -7.90625 C 3.070312 -8.039062 3.191406 -8.148438 3.265625 -8.234375 C 3.347656 -8.316406 3.484375 -8.359375 3.671875 -8.359375 C 3.910156 -8.359375 4.070312 -8.25 4.15625 -8.03125 C 4.238281 -7.8125 4.28125 -7.550781 4.28125 -7.25 L 4.28125 -2.65625 C 4.28125 -2.175781 4.3125 -1.8125 4.375 -1.5625 C 4.445312 -1.3125 4.53125 -1.128906 4.625 -1.015625 C 4.726562 -0.898438 4.8125 -0.804688 4.875 -0.734375 C 4.945312 -0.660156 4.984375 -0.546875 4.984375 -0.390625 C 4.984375 -0.179688 4.90625 -0.046875 4.75 0.015625 C 4.59375 0.0859375 4.394531 0.125 4.15625 0.125 C 3.894531 0.125 3.625 0.101562 3.34375 0.0625 C 3.0625 0.0195312 2.816406 0 2.609375 0 Z M 0.265625 -8.9375 C 0.128906 -9.351562 0.203125 -9.800781 0.484375 -10.28125 C 0.765625 -10.757812 1.191406 -11.148438 1.765625 -11.453125 C 2.242188 -11.703125 2.6875 -11.828125 3.09375 -11.828125 C 3.695312 -11.828125 4.085938 -11.578125 4.265625 -11.078125 C 4.410156 -10.648438 4.34375 -10.203125 4.0625 -9.734375 C 3.78125 -9.273438 3.351562 -8.882812 2.78125 -8.5625 C 2.28125 -8.320312 1.832031 -8.203125 1.4375 -8.203125 C 0.851562 -8.203125 0.460938 -8.445312 0.265625 -8.9375 Z M 0.265625 -8.9375 "/></g></g></g></svg>